<svg width="36" height="35" viewBox="0 0 36 35" fill="none" xmlns="http://www.w3.org/2000/svg">
<path d="M14.405 15.8711C14.7499 15.625 14.9164 15.2188 14.9164 14.6602C14.9283 14.3945 14.8728 14.1328 14.7539 13.8945C14.6469 13.7031 14.4883 13.543 14.294 13.4297C14.0926 13.3093 13.8689 13.2297 13.636 13.1953C13.3823 13.1484 13.1246 13.125 12.8709 13.1289H10.084V16.2422H13.1008C13.6201 16.2461 14.0602 16.1211 14.405 15.8711ZM14.8728 18.6836C14.4843 18.3906 13.965 18.2461 13.3188 18.2461H10.076V21.918H13.2554C13.5527 21.918 13.8263 21.8906 14.0919 21.8359C14.3432 21.7875 14.5827 21.692 14.7975 21.5547C14.9997 21.4258 15.1622 21.25 15.2851 21.0234C15.404 20.7969 15.4635 20.5078 15.4635 20.1602C15.4635 19.4687 15.2653 18.9805 14.8728 18.6836ZM18.0403 0C8.23264 0 0.280273 7.83594 0.280273 17.5C0.280273 27.1641 8.23264 35 18.0403 35C27.848 35 35.8003 27.1641 35.8003 17.5C35.8003 7.83594 27.848 0 18.0403 0ZM21.4694 11.207H26.956V12.5234H21.4694V11.207ZM18.0403 22.0625C17.7837 22.5425 17.4172 22.9571 16.9699 23.2734C16.5022 23.5938 15.9828 23.8281 15.4318 23.9648C14.8553 24.1171 14.2606 24.192 13.6637 24.1875H7.09886V10.8633H13.4814C14.1275 10.8633 14.7143 10.9219 15.2494 11.0312C15.7807 11.1406 16.2326 11.3281 16.6132 11.582C16.9898 11.8359 17.2871 12.1758 17.4972 12.5977C17.7033 13.0156 17.8104 13.5391 17.8104 14.1602C17.8104 14.832 17.6558 15.3867 17.3466 15.8359C17.0334 16.2852 16.5814 16.6484 15.967 16.9336C16.8034 17.168 17.4179 17.5859 17.8223 18.1719C18.2346 18.7656 18.4367 19.4766 18.4367 20.3125C18.4367 20.9922 18.3059 21.5742 18.0403 22.0625ZM29.0927 20H22.0205C22.0205 20.7578 22.2861 21.4844 22.6865 21.875C23.0908 22.2617 23.6696 22.457 24.4268 22.457C24.9738 22.457 25.4377 22.3203 25.8341 22.0508C26.2266 21.7812 26.4644 21.4961 26.5516 21.1992H28.9223C28.5417 22.3594 27.9629 23.1875 27.178 23.6875C26.401 24.1875 25.4496 24.4375 24.3435 24.4375C23.5705 24.4375 22.8767 24.3125 22.2543 24.0742C21.6557 23.8438 21.1166 23.4922 20.6726 23.0391C20.2348 22.5737 19.8964 22.0264 19.6776 21.4297C19.4357 20.7695 19.3168 20.0742 19.3247 19.375C19.3247 18.6523 19.4476 17.9805 19.6855 17.3555C20.1414 16.1406 21.0888 15.168 22.298 14.6641C22.9441 14.3984 23.6379 14.2656 24.3396 14.2734C25.1721 14.2734 25.8936 14.4297 26.5199 14.75C27.1229 15.0559 27.6465 15.4942 28.0501 16.0312C28.4505 16.5664 28.732 17.1758 28.9104 17.8633C29.0809 18.5391 29.1403 19.25 29.0927 20ZM24.2563 16.2656C23.8282 16.2656 23.4674 16.3398 23.1899 16.4844C22.9124 16.6289 22.6825 16.8086 22.5081 17.0156C22.3419 17.2155 22.2192 17.4468 22.1473 17.6953C22.0839 17.9023 22.0403 18.1133 22.0244 18.3281H26.405C26.3415 17.6523 26.1037 17.1523 25.7865 16.8008C25.4535 16.4531 24.9184 16.2656 24.2563 16.2656Z" fill="black"/>
</svg>
