<svg width="17" height="12" viewBox="0 0 17 12" fill="none" xmlns="http://www.w3.org/2000/svg">
<path fill-rule="evenodd" clip-rule="evenodd" d="M0.379579 5.77956C0.379579 5.94985 0.441742 6.11316 0.552393 6.23358C0.663044 6.35399 0.813119 6.42164 0.969605 6.42164L14.886 6.42164L11.1723 10.4616C11.1175 10.5213 11.074 10.5922 11.0443 10.6702C11.0146 10.7482 10.9993 10.8318 10.9993 10.9162C10.9993 11.0006 11.0146 11.0842 11.0443 11.1622C11.074 11.2402 11.1175 11.3111 11.1723 11.3708C11.2272 11.4305 11.2923 11.4779 11.364 11.5102C11.4357 11.5425 11.5125 11.5591 11.5901 11.5591C11.6677 11.5591 11.7445 11.5425 11.8162 11.5102C11.8878 11.4779 11.953 11.4305 12.0078 11.3708L16.728 6.23415C16.783 6.17451 16.8266 6.10365 16.8563 6.02565C16.8861 5.94764 16.9014 5.86401 16.9014 5.77956C16.9014 5.6951 16.8861 5.61148 16.8563 5.53347C16.8266 5.45546 16.783 5.38461 16.728 5.32496L12.0078 0.188316C11.953 0.128618 11.8878 0.0812631 11.8162 0.0489545C11.7445 0.0166459 11.6677 1.76641e-05 11.5901 1.76714e-05C11.5125 1.76788e-05 11.4357 0.016646 11.364 0.0489545C11.2923 0.0812631 11.2272 0.128618 11.1723 0.188316C11.1175 0.248014 11.074 0.318886 11.0443 0.396885C11.0146 0.474885 10.9993 0.558484 10.9993 0.64291C10.9993 0.727336 11.0146 0.810935 11.0443 0.888934C11.074 0.966934 11.1175 1.03781 11.1723 1.0975L14.886 5.13748L0.969605 5.13748C0.813119 5.13748 0.663043 5.20512 0.552392 5.32554C0.441741 5.44595 0.379579 5.60927 0.379579 5.77956Z" fill="black"/>
</svg>
