<svg width="571" height="377" viewBox="0 0 571 377" fill="none" xmlns="http://www.w3.org/2000/svg">
<rect width="571" height="377" fill="#EDEDED"/>
<path d="M260.603 201.819L261.732 215.493C255.148 219.861 249.88 221 240.475 221C222.227 221 210 208.846 210 189.095C210 169.154 222.227 157 240.475 157C249.504 157 256.088 157.95 261.732 162.507L260.603 176.181H259.474C257.029 161.558 247.623 158.139 240.475 158.139C231.445 158.139 221.287 162.318 221.287 189.095C221.287 216.252 231.633 220.05 240.475 220.05C247.623 220.05 258.346 215.493 259.474 202.009H260.603V201.819Z" fill="#003049"/>
<path d="M288.444 166.496L304.246 209.605L300.483 220.24H299.166L278.474 165.926C276.028 159.469 273.019 158.899 270.009 158.899V157.76H293.711V158.899C285.998 158.899 288.256 165.926 288.444 166.496ZM318.542 166.496L333.403 209.795L329.641 220.24H328.512L308.572 165.926C306.127 159.469 303.117 158.899 300.295 158.899V157.76H323.998V158.899C316.097 158.899 318.354 165.926 318.542 166.496ZM337.918 157.76H360.304V158.899C353.908 158.899 351.274 160.988 344.126 179.979L342.997 179.789C345.443 171.243 350.334 158.899 337.918 158.899V157.76Z" fill="#003049"/>
</svg>
