<svg width="37" height="35" viewBox="0 0 37 35" fill="none" xmlns="http://www.w3.org/2000/svg">
<path d="M24.7858 10.3242C23.612 9.2951 22.2025 8.5617 20.678 8.18684C19.1536 7.81199 17.5596 7.80685 16.0327 8.17188C16.3023 8.52734 18.0743 10.9023 19.6719 13.7969C23.1407 12.5156 24.6075 10.5703 24.7858 10.3242ZM19.9851 19.0938C14.4866 20.9805 12.5084 24.7422 12.334 25.0938C13.9871 26.3633 16.0644 27.1211 18.3201 27.1211C19.6719 27.1211 20.9603 26.8516 22.1298 26.3594C21.9831 25.5156 21.4202 22.5781 20.0485 19.0703L19.9851 19.0938ZM21.8761 18.6289C23.1526 22.082 23.6719 24.8945 23.771 25.4805C25.9593 24.0234 27.5172 21.7148 27.9494 19.0391C27.6164 18.9375 24.9325 18.1484 21.8761 18.6289ZM18.3201 0C8.51243 0 0.560059 7.83594 0.560059 17.5C0.560059 27.1641 8.51243 35 18.3201 35C28.1277 35 36.0801 27.1641 36.0801 17.5C36.0801 7.83594 28.1277 0 18.3201 0ZM18.3201 28.75C12.0248 28.75 6.90293 23.7031 6.90293 17.5C6.90293 11.2969 12.0248 6.25 18.3201 6.25C24.6154 6.25 29.7372 11.2969 29.7372 17.5C29.7372 23.7031 24.6154 28.75 18.3201 28.75ZM20.4251 15.2266C20.6511 15.6836 20.8691 16.1484 21.0713 16.6172C21.1427 16.7812 21.214 16.9453 21.2814 17.1133C24.5242 16.7109 27.7511 17.3555 28.0722 17.4219C28.0524 15.1523 27.2279 13.0703 25.8721 11.4336C25.662 11.7109 24.0287 13.7773 20.4251 15.2266ZM17.7889 14.375C16.1714 11.543 14.4311 9.16406 14.1734 8.81641C11.446 10.0859 9.4044 12.5625 8.77407 15.543C9.21014 15.5508 13.2299 15.5703 17.7889 14.375ZM19.0019 17.5977C19.1288 17.5586 19.2557 17.5195 19.3865 17.4844C19.1407 16.9375 18.8751 16.3906 18.5976 15.8555C13.7294 17.293 9.00004 17.2305 8.57586 17.2227C8.57189 17.3203 8.57189 17.418 8.57189 17.5156C8.57189 19.9844 9.51936 22.2383 11.0773 23.9414C11.2954 23.5664 13.9713 19.1992 19.0019 17.5977Z" fill="black"/>
</svg>
