<svg width="17" height="13" viewBox="0 0 17 13" fill="none" xmlns="http://www.w3.org/2000/svg">
<path fill-rule="evenodd" clip-rule="evenodd" d="M16.5218 6.75891C16.5218 6.58367 16.4596 6.4156 16.349 6.29169C16.2383 6.16777 16.0882 6.09816 15.9318 6.09816L2.0154 6.09816L5.72903 1.94068C5.78389 1.87925 5.8274 1.80632 5.85709 1.72605C5.88678 1.64578 5.90206 1.55975 5.90206 1.47287C5.90206 1.38599 5.88678 1.29996 5.85709 1.21969C5.8274 1.13942 5.78389 1.06649 5.72903 1.00505C5.67417 0.94362 5.60905 0.894888 5.53737 0.86164C5.46569 0.828392 5.38887 0.811279 5.31129 0.811279C5.23371 0.811279 5.15689 0.828392 5.08521 0.86164C5.01354 0.894888 4.94841 0.94362 4.89355 1.00505L0.173342 6.2911C0.118395 6.35247 0.0748007 6.42539 0.0450557 6.50567C0.0153108 6.58594 -1.38545e-07 6.672 -1.406e-07 6.75891C-1.42654e-07 6.84582 0.0153108 6.93188 0.0450557 7.01216C0.0748007 7.09243 0.118395 7.16535 0.173342 7.22673L4.89355 12.5128C4.94841 12.5742 5.01354 12.6229 5.08521 12.6562C5.15689 12.6894 5.23371 12.7065 5.31129 12.7065C5.38887 12.7065 5.46569 12.6894 5.53737 12.6562C5.60905 12.6229 5.67417 12.5742 5.72903 12.5128C5.78389 12.4513 5.8274 12.3784 5.85709 12.2981C5.88678 12.2179 5.90206 12.1318 5.90206 12.045C5.90206 11.9581 5.88678 11.872 5.85709 11.7918C5.8274 11.7115 5.78389 11.6386 5.72903 11.5771L2.0154 7.41967L15.9318 7.41967C16.0882 7.41967 16.2383 7.35005 16.349 7.22614C16.4596 7.10222 16.5218 6.93415 16.5218 6.75891Z" fill="white"/>
</svg>
