<svg width="36" height="35" viewBox="0 0 36 35" fill="none" xmlns="http://www.w3.org/2000/svg">
<path d="M17.76 0C7.95131 0 0 7.8349 0 17.5C0 27.1651 7.95131 35 17.76 35C27.5687 35 35.5201 27.1651 35.5201 17.5C35.5201 7.8349 27.5687 0 17.76 0ZM13.4125 24.7534H9.81611V13.3492H13.4125V24.7534ZM11.5921 11.9492C10.4562 11.9492 9.72177 11.1562 9.72177 10.1755C9.72177 9.17474 10.4784 8.40547 11.6384 8.40547C12.7983 8.40547 13.5087 9.17474 13.5309 10.1755C13.5309 11.1562 12.7983 11.9492 11.5921 11.9492ZM26.5475 24.7534H22.9511V18.4333C22.9511 16.9622 22.4294 15.9633 21.1289 15.9633C20.1354 15.9633 19.5453 16.6396 19.2844 17.2904C19.1882 17.5219 19.1642 17.85 19.1642 18.1763V24.7516H15.5659V16.9859C15.5659 15.5622 15.5197 14.3719 15.4716 13.3474H18.5962L18.7609 14.9315H18.833C19.3066 14.1878 20.4666 13.0904 22.4072 13.0904C24.7734 13.0904 26.5475 14.6526 26.5475 18.0104V24.7534Z" fill="black"/>
</svg>
