<svg width="100" height="39" viewBox="0 0 100 39" fill="none" xmlns="http://www.w3.org/2000/svg">
<path d="M34.5376 0V21.0983C34.5376 30.6358 26.7341 38.2948 17.341 38.2948C7.94798 38.2948 0 30.6358 0 21.0983V19.3642H16.0405V20.9538C16.0405 20.9538 16.0405 20.9538 16.0405 21.0983C16.0405 21.8208 16.6185 22.2543 17.1965 22.2543C17.9191 22.2543 18.3526 21.6763 18.3526 21.0983V16.0405H0V6.50289H28.0347V21.0983C28.0347 27.0231 23.2659 31.9364 17.1965 31.9364C15.7514 31.9364 14.3064 31.6474 12.8613 31.0694C12.7168 31.0694 12.7168 30.9249 12.5723 30.9249C12.4277 30.9249 12.4277 30.7803 12.2832 30.7803C11.9942 30.6358 11.8497 30.4913 11.5607 30.4913C11.2717 30.3468 10.9827 30.0578 10.5491 29.9133C10.1156 29.6243 9.82659 29.3353 9.39306 28.9017C9.24856 28.7572 9.24856 28.7572 9.10405 28.6127C8.81503 28.3237 8.67052 28.0347 8.3815 27.7457L8.23699 27.6012C8.09249 27.4566 8.09249 27.4566 8.09249 27.3121C8.09249 27.1676 7.94798 27.1676 7.94798 27.0231C7.65896 26.7341 7.51445 26.3006 7.36994 25.8671C7.36994 25.8671 7.36994 25.7225 7.22543 25.7225H10.8382C10.8382 25.8671 10.9827 25.8671 10.9827 25.8671C11.7052 26.4451 12.2832 27.0231 13.0058 27.4566C14.3064 28.3237 15.7514 28.7572 17.341 28.7572C21.5318 28.7572 25 25.289 25 21.0983V9.53757H3.3237V12.8613H21.5318V21.0983C21.5318 23.4104 19.6532 25.4335 17.1965 25.4335C15.3179 25.4335 13.7283 24.2775 13.1503 22.5434H3.03468C3.75723 29.7688 9.82659 35.4046 17.1965 35.4046C25 35.4046 31.3584 29.0462 31.3584 21.2428V3.03468H0V0H34.5376Z" fill="black"/>
<path d="M42.919 16.763C42.4855 16.763 42.1965 16.763 41.763 16.6185C41.4739 16.474 41.1849 16.474 40.8959 16.3295C40.6069 16.185 40.4624 16.0405 40.1734 15.896C40.0289 15.7515 39.7398 15.4624 39.5953 15.3179L41.1849 13.7283C41.474 14.0174 41.6185 14.1619 41.9075 14.3064C42.1965 14.4509 42.341 14.5954 42.63 14.5954C42.919 14.5954 43.2081 14.4509 43.3526 14.3064C43.4971 14.1619 43.6416 13.7283 43.6416 13.2948V7.51447H46.2427V13.2948C46.2427 13.8728 46.0982 14.3064 45.9537 14.7399C45.8092 15.1734 45.5202 15.4624 45.2312 15.896C44.9422 16.3295 44.5086 16.474 44.0751 16.6185C43.9306 16.763 43.3526 16.763 42.919 16.763Z" fill="black"/>
<path d="M53.0346 16.763C52.3121 16.763 51.734 16.6185 51.0115 16.3295C50.2889 16.0405 49.8554 15.7514 49.4219 15.3179C48.9884 14.8844 48.6993 14.4509 48.4103 13.8728C48.1213 13.2948 47.9768 12.7168 47.9768 11.9942C47.9768 11.2717 48.1213 10.6936 48.4103 10.1156C48.8439 9.53757 49.1329 9.10405 49.5664 8.67052C49.9999 8.23699 50.578 7.94798 51.156 7.65896C51.734 7.36994 52.4566 7.22543 53.1791 7.22543C53.9017 7.22543 54.4797 7.36994 55.2022 7.65896C55.7803 7.94798 56.3583 8.23699 56.7918 8.67052C57.2254 9.10405 57.5144 9.53757 57.8034 10.1156C58.0924 10.6936 58.2369 11.2717 58.2369 11.9942C58.2369 12.7168 58.0924 13.2948 57.8034 13.8728C57.5144 14.4509 57.2254 15.0289 56.7918 15.4624C56.3583 15.896 55.7803 16.185 55.2022 16.474C54.6242 16.763 53.7572 16.763 53.0346 16.763ZM53.1791 14.4509C53.4681 14.4509 53.9017 14.4509 54.1907 14.3064C54.4797 14.1618 54.7687 14.0173 54.9132 13.7283C55.0577 13.4393 55.2022 13.2948 55.3467 13.0058C55.4913 12.7168 55.4913 12.4277 55.4913 11.9942C55.4913 11.7052 55.4913 11.2717 55.3467 10.9827C55.2022 10.6936 55.0577 10.4046 54.9132 10.1156C54.7687 9.82659 54.4797 9.68208 54.1907 9.53757C53.9017 9.39306 53.4681 9.53757 53.0346 9.53757C52.7456 9.53757 52.3121 9.53757 52.023 9.68208C51.734 9.82659 51.5895 10.1156 51.445 10.2601C51.3005 10.5491 51.156 10.6936 51.0115 10.9827C50.867 11.2717 50.867 11.5607 50.867 11.9942C50.867 12.2832 50.867 12.5723 51.0115 13.0058C51.156 13.2948 51.3005 13.5838 51.445 13.7283C51.5895 14.0173 51.8785 14.1618 52.1676 14.3064C52.4566 14.4509 52.7456 14.4509 53.1791 14.4509Z" fill="black"/>
<path d="M63.5838 16.763C62.7167 16.763 61.9942 16.6185 61.2717 16.3295C60.5491 16.0405 59.8266 15.7514 59.2485 15.1734L60.6936 13.4393C61.5607 14.1618 62.5722 14.5954 63.7283 14.5954C64.0173 14.5954 64.3063 14.5954 64.4508 14.4509C64.5954 14.3064 64.7399 14.1618 64.7399 14.0173C64.7399 13.8728 64.7399 13.8728 64.7399 13.7283C64.7399 13.5838 64.5954 13.5838 64.4508 13.5838C64.3063 13.5838 64.1618 13.4393 64.0173 13.4393C63.8728 13.4393 63.5838 13.2948 63.2948 13.1503C62.8613 13.0058 62.2832 12.8613 61.9942 12.7168C61.7052 12.5723 60.9826 12.4277 60.6936 12.2832C60.4046 12.1387 60.1156 11.8497 59.9711 11.4162C59.8266 11.1272 59.6821 10.6936 59.6821 10.2601C59.6821 9.82659 59.8266 9.39306 59.9711 9.10405C60.1156 8.67052 60.4046 8.3815 60.6936 8.09249C60.9826 7.80347 61.4162 7.65896 61.8497 7.51445C62.2832 7.36994 62.7167 7.22543 63.2948 7.22543C64.0173 7.22543 64.7399 7.36994 65.4624 7.51445C66.0404 7.65896 66.6185 8.09249 67.1965 8.3815L65.8959 10.1156C65.4624 9.82659 65.0289 9.53757 64.5954 9.39306C64.1618 9.24855 63.7283 9.10405 63.2948 9.10405C63.0058 9.10405 62.7167 9.10405 62.5722 9.24855C62.4277 9.39306 62.2832 9.53757 62.2832 9.68208C62.2832 9.82659 62.2832 9.82659 62.2832 9.9711C62.2832 10.1156 62.4277 10.1156 62.5722 10.2601C62.7167 10.2601 62.8612 10.4046 63.0058 10.4046C63.1503 10.4046 63.4393 10.5491 63.8728 10.5491C64.4508 10.6936 64.8844 10.8382 65.3179 10.9827C65.7514 11.1272 66.0404 11.2717 66.3295 11.5607C66.6185 11.8497 66.9075 11.9942 67.052 12.2832C67.1965 12.5723 67.341 13.0058 67.341 13.4393C67.341 13.8728 67.1965 14.3064 67.052 14.7399C66.9075 15.1734 66.6185 15.4624 66.3295 15.6069C66.0404 15.896 65.6069 16.0405 65.1734 16.185C64.5954 16.763 64.1618 16.763 63.5838 16.763Z" fill="black"/>
<path d="M69.2196 7.36996H71.8208V10.8382H75.1445V7.36996H77.7456V16.6185H75.1445V13.1503H71.8208V16.6185H69.2196V7.36996Z" fill="black"/>
<path d="M83.9595 16.763C83.3815 16.763 82.6589 16.6185 82.2254 16.474C81.6474 16.3295 81.2138 16.0405 80.9248 15.7515C80.4913 15.4625 80.2023 15.0289 80.0578 14.4509C79.9132 13.8729 79.7687 13.2948 79.7687 12.5723V7.36996H82.3699V12.4278C82.3699 13.1503 82.5144 13.5838 82.8034 13.8729C83.0924 14.1619 83.526 14.3064 84.104 14.3064C84.682 14.3064 85.1156 14.1619 85.4046 13.8729C85.6936 13.5838 85.8381 13.1503 85.8381 12.4278V7.36996H88.4393V12.4278C88.4393 13.1503 88.2947 13.8729 88.1502 14.3064C88.0057 14.8844 87.7167 15.3179 87.2832 15.607C86.8497 15.896 86.4161 16.185 85.9826 16.3295C85.2601 16.763 84.682 16.763 83.9595 16.763Z" fill="black"/>
<path d="M93.6416 7.36996H96.0982L100 16.6185H97.2543L96.5318 15.0289H92.919L92.1965 16.6185H89.5953L93.6416 7.36996ZM95.8092 13.0058L94.7976 10.4046L93.7861 13.0058H95.8092Z" fill="black"/>
<path d="M45.0867 29.4797C44.3641 29.4797 43.7861 29.3352 43.2081 29.0462C42.63 28.7572 42.052 28.4682 41.763 28.0347C41.474 27.6011 41.0404 27.1676 40.7514 26.5896C40.4624 26.0115 40.4624 25.4335 40.4624 24.711C40.4624 24.1329 40.6069 23.4104 40.7514 22.8323C41.0404 22.2543 41.3295 21.8208 41.763 21.3873C42.1965 20.9537 42.63 20.6647 43.3526 20.3757C44.0751 20.0867 44.6532 19.9422 45.2312 19.9422C45.8092 19.9422 46.5318 20.0867 47.1098 20.3757C47.6878 20.6647 48.2659 20.9537 48.5549 21.3873C48.9884 21.8208 49.2774 22.2543 49.5664 22.8323C49.8555 23.4104 49.8555 23.9884 49.8555 24.711C49.8555 25.289 49.711 26.0115 49.5664 26.5896C49.2774 27.1676 48.9884 27.6011 48.5549 28.0347C48.1214 28.4682 47.6878 28.7572 46.9653 29.0462C46.2427 29.3352 45.8092 29.4797 45.0867 29.4797ZM45.2312 27.8901C45.6647 27.8901 46.0982 27.7456 46.5318 27.6011C46.9653 27.4566 47.2543 27.1676 47.5433 26.8786C47.8323 26.5896 47.9769 26.3006 48.1214 25.867C48.2659 25.4335 48.4104 25 48.4104 24.5664C48.4104 24.1329 48.2659 23.6994 48.1214 23.2659C47.9769 22.8323 47.6878 22.5433 47.5433 22.2543C47.2543 21.9653 46.9653 21.6763 46.5318 21.5318C46.0982 21.3873 45.6647 21.2427 45.2312 21.2427C44.7977 21.2427 44.3641 21.3873 43.9306 21.5318C43.4971 21.6763 43.2081 21.9653 42.9191 22.2543C42.63 22.5433 42.4855 22.8323 42.341 23.2659C42.1965 23.6994 42.052 24.1329 42.052 24.5664C42.052 25 42.1965 25.4335 42.341 25.867C42.4855 26.3006 42.7745 26.5896 42.9191 26.8786C43.2081 27.1676 43.4971 27.4566 43.9306 27.6011C44.3641 27.8901 44.6532 27.8901 45.2312 27.8901Z" fill="black"/>
<path d="M52.6011 20.0867H54.1907V27.7457H58.9595V29.1907H52.4566V20.0867H52.6011Z" fill="black"/>
<path d="M64.5953 19.9422H66.0404L70.0866 29.1907H68.3525L67.4855 27.0231H63.1502L62.1387 29.1907H60.5491L64.5953 19.9422ZM66.9075 25.578L65.3179 21.9653L63.7283 25.578H66.9075Z" fill="black"/>
<path d="M72.3988 20.0867H75.867C76.5896 20.0867 77.3121 20.2312 77.8901 20.3757C78.4682 20.6647 79.0462 20.9538 79.4797 21.3873C79.9133 21.8208 80.2023 22.2543 80.4913 22.8324C80.7803 23.4104 80.7803 23.9884 80.7803 24.5665C80.7803 25.1445 80.6358 25.867 80.4913 26.4451C80.2023 27.0231 79.9133 27.4566 79.4797 27.8902C79.0462 28.3237 78.4682 28.6127 77.8901 28.9017C77.3121 29.1907 76.5896 29.1907 75.867 29.1907H72.3988V20.0867ZM73.9884 21.5318V27.7457H75.867C76.3005 27.7457 76.7341 27.6012 77.1676 27.4566C77.6011 27.3121 77.8901 27.0231 78.1792 26.8786C78.4682 26.5896 78.6127 26.3006 78.7572 25.867C78.9017 25.4335 79.0462 25.1445 79.0462 24.5665C79.0462 24.1329 78.9017 23.6994 78.7572 23.2659C78.6127 22.8324 78.3237 22.5433 78.1792 22.2543C77.8901 21.9653 77.6011 21.8208 77.1676 21.5318C76.7341 21.3873 76.3005 21.2428 75.867 21.2428H73.9884V21.5318Z" fill="black"/>
<path d="M83.3815 20.0867H84.9711V29.3353H83.3815V20.0867Z" fill="black"/>
<path d="M90.4624 21.5318H87.5722V20.0867H95.0867V21.5318H92.1965V29.1907H90.6069V21.5318H90.4624Z" fill="black"/>
<path d="M97.3988 20.0867H98.9884V29.3353H97.3988V20.0867Z" fill="black"/>
</svg>
