<svg width="37" height="35" viewBox="0 0 37 35" fill="none" xmlns="http://www.w3.org/2000/svg">
<path d="M18.6004 0C8.7927 0 0.840332 7.83594 0.840332 17.5C0.840332 27.1641 8.7927 35 18.6004 35C28.408 35 36.3604 27.1641 36.3604 17.5C36.3604 7.83594 28.408 0 18.6004 0ZM27.1355 13.1914C27.1474 13.375 27.1474 13.5664 27.1474 13.7539C27.1474 19.4883 22.7153 26.0938 14.6162 26.0938C12.1187 26.0938 9.8036 25.3789 7.85316 24.1484C8.20995 24.1875 8.55088 24.2031 8.9156 24.2031C10.977 24.2031 12.872 23.5156 14.3824 22.3516C12.4478 22.3125 10.8224 21.0625 10.2674 19.3438C10.9453 19.4414 11.5558 19.4414 12.2535 19.2656C11.2574 19.0662 10.3621 18.5331 9.71962 17.757C9.07717 16.9808 8.72724 16.0094 8.72927 15.0078V14.9531C9.31202 15.2773 9.99785 15.4766 10.7154 15.5039C10.1122 15.1078 9.61751 14.5711 9.2752 13.9415C8.9329 13.3119 8.75355 12.6088 8.75306 11.8945C8.75306 11.0859 8.96713 10.3477 9.35167 9.70703C10.4573 11.0482 11.837 12.1451 13.4011 12.9264C14.9651 13.7078 16.6785 14.1561 18.4299 14.2422C17.8075 11.293 20.0434 8.90625 22.7312 8.90625C23.9997 8.90625 25.1414 9.42969 25.9462 10.2734C26.9412 10.0898 27.8927 9.72266 28.741 9.23047C28.412 10.2344 27.7222 11.082 26.8064 11.6172C27.6944 11.5234 28.5507 11.2812 29.3436 10.9414C28.745 11.8086 27.9957 12.5781 27.1355 13.1914Z" fill="black"/>
</svg>
