<svg width="18" height="12" viewBox="0 0 18 12" fill="none" xmlns="http://www.w3.org/2000/svg">
<path fill-rule="evenodd" clip-rule="evenodd" d="M0.828308 6.07233C0.828308 6.24698 0.89047 6.41449 1.00112 6.53799C1.11177 6.66148 1.26185 6.73087 1.41833 6.73087L15.3347 6.73087L11.6211 10.8744C11.5662 10.9356 11.5227 11.0083 11.493 11.0883C11.4633 11.1683 11.448 11.254 11.448 11.3406C11.448 11.4272 11.4633 11.513 11.493 11.593C11.5227 11.673 11.5662 11.7456 11.6211 11.8069C11.6759 11.8681 11.7411 11.9167 11.8127 11.9498C11.8844 11.9829 11.9612 12 12.0388 12C12.1164 12 12.1932 11.9829 12.2649 11.9498C12.3366 11.9167 12.4017 11.8681 12.4565 11.8069L17.1768 6.53857C17.2317 6.4774 17.2753 6.40473 17.305 6.32472C17.3348 6.24472 17.3501 6.15895 17.3501 6.07233C17.3501 5.98571 17.3348 5.89994 17.305 5.81993C17.2753 5.73993 17.2317 5.66726 17.1768 5.60608L12.4565 0.33778C12.4017 0.276552 12.3366 0.227983 12.2649 0.194847C12.1932 0.16171 12.1164 0.144656 12.0388 0.144656C11.9612 0.144656 11.8844 0.16171 11.8127 0.194847C11.7411 0.227983 11.6759 0.276552 11.6211 0.337781C11.5662 0.399008 11.5227 0.471696 11.493 0.551695C11.4633 0.631693 11.448 0.717435 11.448 0.804025C11.448 0.890615 11.4633 0.976357 11.493 1.05636C11.5227 1.13635 11.5662 1.20904 11.6211 1.27027L15.3347 5.41379L1.41833 5.41379C1.26185 5.41379 1.11177 5.48317 1.00112 5.60667C0.89047 5.73017 0.828308 5.89767 0.828308 6.07233Z" fill="white"/>
</svg>
